PathFileType	4	(X/Y/Z)	C:\Users\dbl\Desktop\20210112(1)\20210112\bx_y_0_501.trc
DataRate	CameraRate	NumFrames	NumMarkers	Units	OrigDataRate	OrigDataStartFrame	OrigNumFrames
50.00	50.00	       4	43	mm	50.00	453	       603
Frame#	Time	Top.Head			R.Acromium			L.Acromium			Sternum			R.ASIS			L.ASIS			V.Sacral			R.Thigh.Upper			R.Thigh.Front			R.Thigh.Rear			R.Knee.Lat			R.Knee.Med			R.Shank.Upper			R.Shank.Front			R.Shank.Rear			R.Ankle.Lat			R.Midfoot.Lat			R.Toe.Lat			R.Toe.Tip			R.Toe.Med			R.Ankle.Med			R.Midfoot.Sup			R.Heel			L.Thigh.Upper			L.Thigh.Front			L.Thigh.Rear			L.Knee.Lat			L.Knee.Med			L.Shank.Upper			L.Shank.Front			L.Shank.Rear			L.Ankle.Lat			L.Midfoot.Lat			L.Toe.Lat			L.Toe.Tip			L.Toe.Med			L.Ankle.Med			L.Midfoot.Sup			L.Heel			origin1 front left			origin2 front right			origin 3 back right			origin 4 back leftt			
		X1	Y1	Z1	X2	Y2	Z2	X3	Y3	Z3	X4	Y4	Z4	X5	Y5	Z5	X6	Y6	Z6	X7	Y7	Z7	X8	Y8	Z8	X9	Y9	Z9	X10	Y10	Z10	X11	Y11	Z11	X12	Y12	Z12	X13	Y13	Z13	X14	Y14	Z14	X15	Y15	Z15	X16	Y16	Z16	X17	Y17	Z17	X18	Y18	Z18	X19	Y19	Z19	X20	Y20	Z20	X21	Y21	Z21	X22	Y22	Z22	X23	Y23	Z23	X24	Y24	Z24	X25	Y25	Z25	X26	Y26	Z26	X27	Y27	Z27	X28	Y28	Z28	X29	Y29	Z29	X30	Y30	Z30	X31	Y31	Z31	X32	Y32	Z32	X33	Y33	Z33	X34	Y34	Z34	X35	Y35	Z35	X36	Y36	Z36	X37	Y37	Z37	X38	Y38	Z38	X39	Y39	Z39	X40	Y40	Z40	X41	Y41	Z41	X42	Y42	Z42	X43	Y43	Z43	

453	9.040	-685.58636	129.97897	1848.77271	-684.63934	-55.44582	1551.66199	-709.35065	306.55530	1536.12427				-581.65625	2.62470	1053.95093	-577.94116	228.57701	1073.47375	-780.13257	102.59470	1051.91479	-638.58105	-63.48592	865.88501	-572.12573	6.67828	803.94269	-665.57428	-48.88537	733.98553	-692.76129	-22.81446	613.12744	-677.68384	85.08296	574.50031	-704.36060	-20.30322	568.18726	-656.73590	23.62611	518.79382	-753.80963	-29.43321	490.97235	-766.43689	-4.30319	209.65309	-663.24646	-66.71405	163.36761	-622.09412	-77.36736	159.37242	-559.66510	-37.30507	164.31853	-603.73499	20.32149	165.94566	-715.70105	78.59477	215.72229	-675.72894	55.02408	157.17868	-794.48004	55.67939	175.50099	-631.16797	287.23682	878.36847	-572.16907	222.80252	815.09570	-675.53058	268.42444	709.07391	-719.39539	252.65605	639.10504	-683.52820	147.91437	573.30591	-724.85620	248.80809	575.83466	-670.91168	209.49602	532.01825	-766.60138	255.87531	503.43420	-771.55676	222.28224	205.49857	-667.18890	299.23788	159.82910	-629.66620	306.08246	162.28783	-559.59058	258.55188	165.80742	-594.54425	221.83109	173.23961	-711.14917	152.40565	216.24934	-675.72137	174.16841	157.36005	-796.13800	171.79810	184.51988	-528.01654	304.51126	146.71965	-517.63544	-72.50980	142.93993	-876.02130	-78.63697	141.44937	-882.47937	296.21915	144.75520	
454	9.060	-685.38519	130.07797	1848.81091	-684.47089	-55.29372	1551.75732	-708.86633	306.77097	1536.21326				-581.69574	2.65661	1053.94739	-577.84668	228.57201	1073.43884	-780.12268	102.67335	1051.99341	-638.60999	-63.63061	865.98785	-572.14441	6.64683	803.92828	-665.57367	-48.94408	733.98022	-692.78955	-22.79396	613.12811	-677.68799	85.08138	574.49799	-704.45386	-20.21244	568.16461	-656.73767	23.67418	518.75684	-753.82312	-29.40669	490.96228	-766.40790	-4.28967	209.66035	-663.23444	-66.73884	163.39336	-622.10870	-77.37207	159.36411	-559.65924	-37.31327	164.34578	-603.73877	20.30154	165.94386	-715.68683	78.60193	215.70953	-675.71722	55.02631	157.17145	-794.45123	55.65308	175.54581	-631.16437	287.23621	878.37866	-572.13409	222.87308	815.04077	-675.56689	268.43454	709.07874	-719.40625	252.64944	639.07825	-683.56494	147.87526	573.31458	-724.88275	248.78952	575.80554	-670.90448	209.48973	532.02197	-766.65710	255.90880	503.49036	-771.55493	222.31285	205.50906	-667.23584	299.24008	159.81862	-629.66406	306.07468	162.28604	-559.56281	258.53851	165.81299	-594.53381	221.79944	173.23375	-711.14429	152.39053	216.26227	-675.72150	174.17603	157.37968	-796.14056	171.79164	184.52545	-528.03375	304.54443	146.70877	-517.64191	-72.45485	142.90466	-876.01959	-78.64043	141.48535	-882.49176	296.24866	144.78404	
455	9.080	-685.17926	130.20013	1848.80908	-684.31775	-55.16264	1551.85388	-708.37427	306.98328	1536.26880				-581.69739	2.65104	1053.97363	-577.77100	228.57828	1073.40100	-780.12268	102.73460	1052.06116	-638.65540	-63.78082	866.09406	-572.12848	6.62219	803.94000	-665.58826	-49.03773	734.00415	-692.82605	-22.77881	613.12299	-677.69232	85.03246	574.48724	-704.61115	-20.07391	568.10559	-656.73462	23.69337	518.80414	-753.83960	-29.39215	490.94070	-766.37775	-4.27488	209.63043	-663.23517	-66.73890	163.41449	-622.11932	-77.37936	159.36998	-559.66431	-37.29873	164.34749	-603.72772	20.29276	165.94804	-715.69330	78.59915	215.69275	-675.70868	55.04109	157.14604	-794.43237	55.65083	175.55852	-631.12738	287.22318	878.39496	-572.12054	222.91553	814.94922	-675.54266	268.44986	709.10815	-719.40869	252.62566	639.05487	-683.65283	147.80888	573.24280	-724.89349	248.77182	575.80151	-670.89246	209.47571	532.03766	-766.65631	255.92267	503.49765	-771.55621	222.29570	205.53949	-667.26630	299.26581	159.80511	-629.68439	306.06750	162.27960	-559.52539	258.53598	165.81349	-594.54169	221.78944	173.23701	-711.12927	152.36696	216.28767	-675.72070	174.17126	157.37730	-796.16583	171.79114	184.52022	-528.06250	304.57037	146.70393	-517.63904	-72.37469	142.88863	-876.02795	-78.60773	141.52753	-882.50519	296.25815	144.78693	
456	9.100	-684.92670	130.35832	1848.76794	-684.17517	-55.04333	1551.95667	-707.93744	307.16391	1536.28345				-581.67139	2.61481	1054.01501	-577.69818	228.57332	1073.35681	-780.14105	102.79321	1052.12988	-638.73114	-63.88498	866.14722	-572.09912	6.59958	803.96198	-665.66119	-49.11999	734.04486	-692.89203	-22.78904	613.14984	-677.73761	85.01544	574.51868	-704.78802	-19.93081	568.03436	-656.74988	23.67411	518.92163	-753.86310	-29.39239	490.91754	-766.37646	-4.25491	209.58626	-663.25427	-66.70906	163.41983	-622.13141	-77.38027	159.37675	-559.67969	-37.27121	164.32883	-603.71143	20.29838	165.95441	-715.71191	78.59593	215.68259	-675.70410	55.06111	157.11392	-794.42651	55.67204	175.53775	-631.03778	287.18781	878.40588	-572.15570	222.88058	814.84509	-675.47009	268.43463	709.13306	-719.39868	252.58743	639.04742	-683.73688	147.74370	573.12207	-724.88300	248.75479	575.81683	-670.88129	209.45831	532.06396	-766.59882	255.91811	503.44897	-771.56604	222.24414	205.57506	-667.27368	299.30392	159.78081	-629.70807	306.05377	162.26431	-559.49500	258.53787	165.80504	-594.54675	221.81093	173.26233	-711.11304	152.34807	216.31134	-675.72003	174.16512	157.35928	-796.19495	171.79308	184.49182	-528.07581	304.54187	146.68996	-517.64166	-72.31379	142.89340	-876.03510	-78.55733	141.55978	-882.51752	296.25131	144.76903	
